<svg version="1.1" id="Layer_1" xmlns="http://www.w3.org/2000/svg" xmlns:xlink="http://www.w3.org/1999/xlink" x="0px" y="0px"
	 width="100%" viewBox="0 0 2000 914" enable-background="new 0 0 2000 914" xml:space="preserve">
<path fill="#231F20" opacity="1.000000" stroke="none" 
	d="
M1918.000000,915.000000 
	C1307.295776,915.000000 696.591492,915.000000 85.349174,914.623169 
	C80.186485,913.317200 75.533424,912.509827 70.941635,911.439636 
	C32.146320,902.397461 2.839685,865.443787 2.873575,825.885803 
	C3.082412,582.121094 3.057307,338.356140 2.843850,94.591492 
	C2.824349,72.321739 8.717067,52.603569 22.774902,35.437771 
	C38.991161,15.636361 59.875828,4.659879 85.529335,2.903910 
	C87.055847,2.799422 88.511421,1.658589 90.000000,1.000001 
	C697.037598,1.000000 1304.075195,1.000000 1911.656006,1.383955 
	C1917.017334,2.516017 1921.849121,3.185364 1926.651245,4.024620 
	C1967.733521,11.204332 1999.307007,49.142860 1999.165894,90.339050 
	C1998.781860,202.496078 1999.034424,314.655304 1999.034546,426.813660 
	C1999.034546,559.470459 1999.040283,692.127319 1999.008789,824.784119 
	C1999.007812,829.263428 1999.013306,833.799194 1998.362061,838.212219 
	C1995.334595,858.729492 1985.914429,875.801025 1970.706055,889.957825 
	C1956.690674,903.004272 1940.410522,910.725647 1921.464233,913.074951 
	C1920.248657,913.225586 1919.151978,914.335938 1918.000000,915.000000 
M522.830200,460.751343 
	C522.957947,460.907501 523.085754,461.063629 522.977112,461.847260 
	C466.967010,518.693176 385.912994,535.834351 314.058472,505.866577 
	C271.365936,488.061218 241.949905,458.243530 230.552658,412.417389 
	C229.442505,407.953705 228.603043,403.422668 227.637939,398.922913 
	C227.133362,398.979523 226.628769,399.036133 226.124191,399.092743 
	C226.900116,410.353577 226.653976,421.797180 228.629318,432.843536 
	C237.070251,480.045959 264.674713,512.554199 307.885986,531.826599 
	C352.003571,551.503296 397.867493,552.592773 443.872253,540.262085 
	C524.865051,518.553467 582.957397,467.905396 621.656860,394.593750 
	C641.080933,357.796967 649.415283,318.189117 642.893982,276.575043 
	C634.992676,226.155151 608.562195,188.371216 560.311279,170.312119 
	C494.889008,145.826233 432.988800,154.479599 378.009918,199.031113 
	C341.166443,228.886780 324.837128,268.540070 329.179871,315.646393 
	C332.790710,354.813782 350.916199,386.384552 386.928986,404.026703 
	C440.421234,430.231720 492.126190,425.804169 540.101746,389.472168 
	C575.634216,362.563293 592.084351,326.653168 588.999695,282.111328 
	C586.468750,245.564346 562.844727,217.366226 527.234131,209.578308 
	C499.175507,203.442001 471.457520,205.626526 445.189545,218.012894 
	C419.562012,230.097260 400.415100,248.611603 391.552124,276.153687 
	C380.462463,310.615356 397.585327,347.123810 429.748322,358.573761 
	C440.188751,362.290527 450.970642,362.749359 461.826324,361.839294 
	C482.597534,360.097992 500.716064,352.750946 513.738037,335.681305 
	C526.146240,319.416168 530.247009,300.512604 530.825867,280.326233 
	C530.248108,280.639496 529.851013,280.716858 529.741943,280.936981 
	C529.153442,282.124573 528.624207,283.342255 528.096619,284.559113 
	C523.347717,295.512146 517.089050,305.490692 508.718872,314.044403 
	C495.174622,327.885651 478.799408,334.744904 459.309967,333.887909 
	C437.525177,332.929901 423.395447,318.628906 422.861420,296.819183 
	C422.503235,282.193207 427.193390,269.123810 436.477509,258.059540 
	C455.973694,234.825119 481.675903,226.973923 510.895172,230.963516 
	C535.633728,234.341324 553.801575,252.825348 557.062500,277.556061 
	C560.920654,306.816406 553.198303,333.303955 531.859436,353.942413 
	C500.265930,384.498993 461.943787,393.759491 419.672333,382.941071 
	C388.663025,375.004944 369.440674,354.000885 361.790833,322.825958 
	C353.724243,289.952850 362.815521,261.226868 383.776550,235.702484 
	C420.491974,190.994034 484.928406,173.284775 540.773071,192.879440 
	C578.624023,206.160507 601.360046,232.935242 608.154297,272.517548 
	C613.703186,304.844971 605.750732,334.784851 589.378052,362.563568 
	C572.505676,391.190002 548.084167,412.600769 520.519287,430.342560 
	C475.833893,459.103851 427.316895,473.901611 373.803040,465.880096 
	C331.999664,459.613983 297.599274,440.231445 274.418091,403.893311 
	C255.270630,373.878387 249.816071,340.670441 253.494080,305.647156 
	C253.804260,302.693573 253.896683,299.717133 254.090271,296.751312 
	C252.721710,297.695862 252.335709,298.741638 252.006912,299.805115 
	C244.391327,324.436981 240.912231,349.546814 244.006912,375.274902 
	C249.223099,418.640259 269.261963,452.866699 307.603455,474.937256 
	C354.663788,502.026703 404.617340,505.691223 456.369110,491.483978 
	C480.201752,484.941254 501.911011,473.764923 522.830200,460.751343 
M1480.889526,436.499969 
	C1481.244385,450.641602 1480.475464,464.921478 1482.194458,478.895264 
	C1485.479614,505.596741 1513.877197,525.668213 1539.506592,519.869995 
	C1539.506592,448.922241 1539.506592,377.795288 1539.506592,306.668365 
	C1539.936890,306.514648 1540.367065,306.360931 1540.797363,306.207245 
	C1542.159912,307.732147 1543.627808,309.176178 1544.869873,310.793640 
	C1590.018677,369.591339 1635.140381,428.409851 1680.283325,487.212189 
	C1687.707764,496.882904 1695.459473,506.253571 1705.851807,512.980530 
	C1723.214844,524.219543 1747.582275,523.325012 1762.400391,510.513000 
	C1769.734375,504.171906 1775.365479,496.449097 1775.375000,486.165131 
	C1775.443359,412.183746 1775.414307,338.202301 1775.395020,264.220856 
	C1775.394531,262.568359 1775.399170,260.848297 1774.976685,259.273712 
	C1769.699951,239.606842 1740.540649,222.824814 1719.884033,228.195084 
	C1719.884033,299.092743 1719.884033,370.209076 1719.884033,441.325409 
	C1719.442749,441.472076 1719.001465,441.618744 1718.560181,441.765411 
	C1717.295410,440.351379 1715.931885,439.013153 1714.780273,437.512268 
	C1683.749146,397.068848 1652.737183,356.610718 1621.728271,316.150421 
	C1606.122681,295.788422 1590.620117,275.346619 1574.887573,255.083191 
	C1567.908203,246.093918 1560.020264,237.957184 1549.722290,232.623764 
	C1520.651733,217.567780 1488.673096,232.691818 1482.386475,264.652222 
	C1481.270386,270.326263 1480.963257,276.236176 1480.951172,282.038574 
	C1480.844604,333.192200 1480.889526,384.346100 1480.889526,436.499969 
M1242.389282,347.238525 
	C1247.407349,362.743835 1249.687378,378.732727 1249.925537,394.943176 
	C1250.263306,417.935425 1249.742432,440.943115 1250.277832,463.928131 
	C1250.473022,472.308533 1251.613159,480.965118 1254.108154,488.936737 
	C1261.001221,510.960236 1286.530518,523.312927 1310.276855,519.865295 
	C1310.276855,518.091858 1310.276855,516.271057 1310.276855,514.450195 
	C1310.276855,473.454834 1310.541016,432.456818 1310.127808,391.465607 
	C1309.990723,377.857056 1309.159424,364.085022 1306.844116,350.699280 
	C1298.240356,300.954010 1272.484863,263.153717 1226.597412,240.550232 
	C1199.061157,226.986282 1169.595093,222.716507 1139.103638,224.772110 
	C1058.227173,230.224442 999.470459,291.011963 996.866821,371.866516 
	C996.000244,398.777374 1000.192932,424.672394 1012.169312,448.985107 
	C1040.117920,505.721985 1097.829834,528.210938 1151.680054,520.377197 
	C1160.011230,519.165283 1168.386597,516.950562 1176.226562,513.883179 
	C1223.654785,495.327087 1239.921509,446.053741 1213.237061,402.642181 
	C1212.598389,401.602966 1211.766968,400.682129 1210.844482,399.467865 
	C1208.742188,406.469208 1207.144531,413.077179 1204.787231,419.402069 
	C1197.380249,439.275696 1185.294800,455.015442 1164.641235,462.572449 
	C1129.674927,475.366394 1090.159546,460.649567 1072.003052,428.136017 
	C1061.394409,409.138855 1058.522949,388.516022 1060.252075,367.213806 
	C1062.415649,340.558838 1072.427856,317.649170 1093.676025,300.360352 
	C1132.218140,269.000031 1217.459717,270.964905 1242.389282,347.238525 
M870.517090,306.019012 
	C847.175842,324.843384 823.829651,343.661530 800.494629,362.493652 
	C774.826477,383.208740 748.923035,403.643585 723.645691,424.825317 
	C715.314270,431.806824 707.414490,439.931488 701.396790,448.924805 
	C685.137573,473.224121 696.071655,503.526550 724.013184,511.931366 
	C733.581177,514.809448 743.982544,516.032227 754.012451,516.080322 
	C825.155884,516.421997 896.301819,516.262207 967.446899,516.262207 
	C969.233398,516.262207 971.019958,516.262207 972.758423,516.262207 
	C975.127502,488.600525 960.419922,471.488159 941.028320,467.122314 
	C931.852783,465.056519 922.257629,464.054596 912.842712,463.988983 
	C867.858582,463.675385 822.870911,463.869934 777.884766,463.780670 
	C775.717102,463.776367 773.551453,462.794098 771.384766,462.267212 
	C772.750000,460.384735 773.785461,458.096008 775.529541,456.680115 
	C806.311523,431.690704 837.210632,406.845673 868.019897,381.889740 
	C893.003540,361.652710 918.175476,341.632782 942.686890,320.836609 
	C951.087769,313.709137 959.100342,305.375977 964.926331,296.107727 
	C979.900330,272.286469 968.858887,243.178268 941.978394,235.042435 
	C932.260193,232.101074 921.689941,230.836548 911.498047,230.782410 
	C843.520569,230.421326 775.540283,230.594940 707.560913,230.594879 
	C705.790466,230.594879 704.019958,230.594894 702.094604,230.594894 
	C702.094604,234.480347 701.857117,237.794083 702.132935,241.064560 
	C703.983032,263.001129 715.376343,276.283691 736.901001,281.004425 
	C743.027588,282.348053 749.433960,282.945404 755.715332,282.968445 
	C800.034607,283.131256 844.354797,283.044708 888.674683,283.086334 
	C890.798340,283.088318 892.921692,283.547455 895.045166,283.793701 
	C895.249207,284.423798 895.453247,285.053894 895.657288,285.683990 
	C887.462036,292.314545 879.266724,298.945129 870.517090,306.019012 
M1407.143799,238.347626 
	C1394.766479,228.470856 1380.408203,225.709763 1364.411011,226.280914 
	C1364.411011,228.393753 1364.411011,230.181076 1364.411011,231.968414 
	C1364.411133,308.744843 1364.401245,385.521240 1364.437866,462.297668 
	C1364.439941,466.620636 1364.646729,470.960419 1365.059448,475.263519 
	C1367.870850,504.579834 1395.587158,525.581970 1424.438843,520.078003 
	C1424.516846,519.360718 1424.679321,518.563721 1424.679443,517.766724 
	C1424.687500,438.658752 1424.762085,359.550598 1424.614136,280.442902 
	C1424.584229,264.449493 1420.562988,249.742905 1407.143799,238.347626 
M1773.993774,748.499878 
	C1774.498413,694.290588 1775.002930,640.081360 1775.507080,585.913330 
	C1766.959229,585.913330 1759.073120,585.913330 1750.268555,585.913330 
	C1750.268555,614.542297 1750.268555,642.796204 1750.268555,671.217163 
	C1714.938354,671.217163 1680.538574,671.217163 1645.877075,671.217163 
	C1645.877075,642.600952 1645.877075,614.244263 1645.877075,585.806030 
	C1637.776855,585.806030 1630.006714,585.806030 1621.863647,585.806030 
	C1621.307739,650.316284 1620.754150,714.558350 1620.198730,779.010864 
	C1628.413574,779.010864 1636.348755,779.010864 1645.327393,779.010864 
	C1645.327393,749.910645 1645.327393,721.039062 1645.327393,692.092529 
	C1680.769531,692.092529 1715.166870,692.092529 1749.641968,692.092529 
	C1749.641968,721.205933 1749.641968,750.057495 1749.641968,778.853149 
	C1757.826416,778.853149 1765.702637,778.853149 1773.993652,778.853149 
	C1773.993652,768.806519 1773.993652,759.153259 1773.993774,748.499878 
M1423.800659,757.776672 
	C1427.069824,766.230713 1430.338867,774.684814 1433.664185,783.284119 
	C1442.046387,780.543030 1449.731934,778.029663 1457.668335,775.434265 
	C1457.266235,774.223389 1457.055176,773.443115 1456.753418,772.699646 
	C1431.909912,711.477844 1407.036743,650.268005 1382.281250,589.010681 
	C1381.122437,586.143188 1379.567749,585.371094 1376.717773,585.482910 
	C1371.727539,585.678589 1366.709717,585.767151 1361.731079,585.457581 
	C1358.442017,585.253052 1357.139404,586.696106 1355.954712,589.483704 
	C1330.112427,650.294556 1304.181152,711.067566 1278.280762,771.853760 
	C1277.719971,773.170166 1277.320190,774.555115 1276.731445,776.232239 
	C1284.333618,778.620178 1291.557251,780.889221 1298.912964,783.199768 
	C1299.770630,781.217285 1300.445557,779.707031 1301.081299,778.180481 
	C1309.335693,758.361206 1317.627075,738.557007 1325.782349,718.697021 
	C1326.848267,716.101379 1327.991211,714.851257 1331.102539,714.871033 
	C1355.258301,715.024719 1379.415894,715.011780 1403.572021,714.882690 
	C1406.426758,714.867371 1407.625977,715.837463 1408.589966,718.401978 
	C1413.450195,731.330994 1418.504517,744.187012 1423.800659,757.776672 
M1168.049561,610.460144 
	C1197.619385,596.411743 1226.103394,599.737305 1254.141235,616.042847 
	C1257.384399,609.886719 1260.611938,603.760071 1263.792236,597.723145 
	C1263.350830,597.236755 1263.173706,596.915955 1262.902222,596.764587 
	C1261.740967,596.116821 1260.564331,595.493408 1259.370972,594.906982 
	C1242.392090,586.563904 1224.596802,582.041199 1205.534668,581.595154 
	C1151.142822,580.322632 1107.862549,616.662598 1101.642334,670.623718 
	C1097.955444,702.606628 1105.820801,731.722229 1129.343506,754.947449 
	C1150.768066,776.101196 1177.494629,783.781250 1206.985962,783.095581 
	C1227.365967,782.621765 1245.291260,774.418640 1263.205688,765.119568 
	C1259.881226,759.118896 1256.842041,753.633118 1253.799072,748.140381 
	C1196.310791,781.877747 1149.819458,752.325562 1134.673584,719.173828 
	C1116.326660,679.014954 1130.270142,631.710754 1168.049561,610.460144 
M1503.614624,619.393616 
	C1508.801758,608.884583 1517.373169,602.900757 1528.775635,600.990234 
	C1540.076416,599.096741 1551.032837,600.437622 1561.365356,605.552551 
	C1566.814697,608.250183 1572.122681,611.233582 1577.699585,614.197021 
	C1580.784302,608.347717 1583.714478,602.791443 1586.554810,597.405579 
	C1586.214966,596.802429 1586.127686,596.395203 1585.884888,596.252441 
	C1564.896606,583.909424 1542.469116,578.135132 1518.347900,583.564880 
	C1497.078979,588.352539 1481.521240,600.484375 1477.390381,622.943726 
	C1473.104736,646.244873 1480.603394,665.453613 1501.017334,678.491455 
	C1507.427612,682.585571 1514.618530,685.442383 1521.370605,689.019470 
	C1530.898315,694.066956 1540.837769,698.539124 1549.713013,704.565308 
	C1561.280029,712.419128 1563.331665,724.531799 1560.840332,737.519897 
	C1558.470459,749.875488 1550.876709,758.036621 1539.117188,762.093628 
	C1526.433960,766.469299 1513.771118,765.325684 1501.519531,760.380737 
	C1494.942383,757.726013 1488.702271,754.236328 1481.904907,750.926147 
	C1478.598145,756.292175 1475.158203,761.874207 1471.743042,767.416077 
	C1492.476196,782.620056 1527.417236,787.782349 1550.996582,779.169739 
	C1572.147339,771.443970 1584.633179,756.533447 1587.392456,733.972900 
	C1590.070190,712.077393 1580.927979,695.742249 1562.917603,684.084961 
	C1556.384277,679.856262 1549.162964,676.694702 1542.279419,673.001648 
	C1532.911011,667.975342 1523.033691,663.677734 1514.330933,657.680054 
	C1500.254272,647.978699 1497.324585,636.265625 1503.614624,619.393616 
M1429.311768,161.401306 
	C1425.059204,143.199188 1409.117065,131.396149 1391.179688,133.169479 
	C1373.458252,134.921463 1359.598877,149.539795 1359.037109,167.072281 
	C1358.357178,188.292007 1375.527954,205.122330 1396.721680,204.009781 
	C1417.762695,202.905273 1432.552246,184.064362 1429.311768,161.401306 
z"/>
<path fill="#040404" opacity="1.000000" stroke="none" 
	d="
M89.536819,1.000001 
	C88.511421,1.658589 87.055847,2.799422 85.529335,2.903910 
	C59.875828,4.659879 38.991161,15.636361 22.774902,35.437771 
	C8.717067,52.603569 2.824349,72.321739 2.843850,94.591492 
	C3.057307,338.356140 3.082412,582.121094 2.873575,825.885803 
	C2.839685,865.443787 32.146320,902.397461 70.941635,911.439636 
	C75.533424,912.509827 80.186485,913.317200 84.905571,914.623169 
	C81.969406,915.000000 78.938812,915.000000 75.238968,914.687378 
	C64.488571,910.475647 53.729813,907.752686 44.474251,902.420410 
	C27.716593,892.766113 15.100721,878.649597 7.876444,860.428772 
	C5.003539,853.182800 3.258506,845.489624 0.999996,838.000000 
	C1.000000,584.979126 1.000000,331.958221 1.319912,78.236374 
	C1.790740,76.055687 1.772257,74.535110 2.117628,73.102249 
	C8.774932,45.482750 23.915520,24.083885 49.414371,11.055780 
	C58.064163,6.636352 67.774368,4.292388 77.000000,1.000000 
	C81.024544,1.000000 85.049088,1.000000 89.536819,1.000001 
z"/>
<path fill="#040404" opacity="1.000000" stroke="none" 
	d="
M1918.449951,915.000000 
	C1919.151978,914.335938 1920.248657,913.225586 1921.464233,913.074951 
	C1940.410522,910.725647 1956.690674,903.004272 1970.706055,889.957825 
	C1985.914429,875.801025 1995.334595,858.729492 1998.362061,838.212219 
	C1999.013306,833.799194 1999.007812,829.263428 1999.008789,824.784119 
	C1999.040283,692.127319 1999.034546,559.470459 1999.034546,426.813660 
	C1999.034424,314.655304 1998.781860,202.496078 1999.165894,90.339050 
	C1999.307007,49.142860 1967.733521,11.204332 1926.651245,4.024620 
	C1921.849121,3.185364 1917.017334,2.516017 1912.099609,1.383955 
	C1916.024536,1.000000 1920.049072,1.000000 1924.761719,1.316800 
	C1930.832153,3.089216 1936.350098,4.170988 1941.573120,6.065330 
	C1963.809937,14.130559 1980.765381,28.565722 1991.199341,49.822956 
	C1995.416870,58.415428 1997.788452,67.913834 2001.000000,77.000015 
	C2001.000000,330.687561 2001.000000,584.375122 2000.680908,838.761841 
	C1997.786499,847.580933 1995.994751,856.058472 1992.484741,863.752075 
	C1983.022583,884.492554 1967.656128,899.579041 1946.408691,908.253601 
	C1940.076416,910.838745 1933.477051,912.769409 1927.000000,915.000000 
	C1924.299927,915.000000 1921.599976,915.000000 1918.449951,915.000000 
z"/>
<path fill="#47704C" opacity="1.000000" stroke="none" 
	d="
M76.531342,1.000000 
	C67.774368,4.292388 58.064163,6.636352 49.414371,11.055780 
	C23.915520,24.083885 8.774932,45.482750 2.117628,73.102249 
	C1.772257,74.535110 1.790740,76.055687 1.319912,77.767715 
	C1.000000,52.406937 1.000000,26.813871 1.000000,1.000000 
	C26.020462,1.000000 51.041573,1.000000 76.531342,1.000000 
z"/>
<path fill="#47704C" opacity="1.000000" stroke="none" 
	d="
M2001.000000,76.531357 
	C1997.788452,67.913834 1995.416870,58.415428 1991.199341,49.822956 
	C1980.765381,28.565722 1963.809937,14.130559 1941.573120,6.065330 
	C1936.350098,4.170988 1930.832153,3.089216 1925.224976,1.316800 
	C1950.260254,1.000000 1975.520386,1.000000 2001.000000,1.000000 
	C2001.000000,26.020468 2001.000000,51.041576 2001.000000,76.531357 
z"/>
<path fill="#47704C" opacity="1.000000" stroke="none" 
	d="
M0.999996,838.468628 
	C3.258506,845.489624 5.003539,853.182800 7.876444,860.428772 
	C15.100721,878.649597 27.716593,892.766113 44.474251,902.420410 
	C53.729813,907.752686 64.488571,910.475647 74.784851,914.687378 
	C50.405006,915.000000 25.810013,915.000000 1.000000,915.000000 
	C1.000000,889.646179 1.000000,864.291748 0.999996,838.468628 
z"/>
<path fill="#47704C" opacity="1.000000" stroke="none" 
	d="
M1927.468628,915.000000 
	C1933.477051,912.769409 1940.076416,910.838745 1946.408691,908.253601 
	C1967.656128,899.579041 1983.022583,884.492554 1992.484741,863.752075 
	C1995.994751,856.058472 1997.786499,847.580933 2000.680908,839.230469 
	C2001.000000,864.259216 2001.000000,889.518494 2001.000000,915.000000 
	C1976.646240,915.000000 1952.291748,915.000000 1927.468628,915.000000 
z"/>
<path fill="#FCFCFC" opacity="1.000000" stroke="none" 
	d="
M522.485352,460.253693 
	C501.911011,473.764923 480.201752,484.941254 456.369110,491.483978 
	C404.617340,505.691223 354.663788,502.026703 307.603455,474.937256 
	C269.261963,452.866699 249.223099,418.640259 244.006912,375.274902 
	C240.912231,349.546814 244.391327,324.436981 252.006912,299.805115 
	C252.335709,298.741638 252.721710,297.695862 254.090271,296.751312 
	C253.896683,299.717133 253.804260,302.693573 253.494080,305.647156 
	C249.816071,340.670441 255.270630,373.878387 274.418091,403.893311 
	C297.599274,440.231445 331.999664,459.613983 373.803040,465.880096 
	C427.316895,473.901611 475.833893,459.103851 520.519287,430.342560 
	C548.084167,412.600769 572.505676,391.190002 589.378052,362.563568 
	C605.750732,334.784851 613.703186,304.844971 608.154297,272.517548 
	C601.360046,232.935242 578.624023,206.160507 540.773071,192.879440 
	C484.928406,173.284775 420.491974,190.994034 383.776550,235.702484 
	C362.815521,261.226868 353.724243,289.952850 361.790833,322.825958 
	C369.440674,354.000885 388.663025,375.004944 419.672333,382.941071 
	C461.943787,393.759491 500.265930,384.498993 531.859436,353.942413 
	C553.198303,333.303955 560.920654,306.816406 557.062500,277.556061 
	C553.801575,252.825348 535.633728,234.341324 510.895172,230.963516 
	C481.675903,226.973923 455.973694,234.825119 436.477509,258.059540 
	C427.193390,269.123810 422.503235,282.193207 422.861420,296.819183 
	C423.395447,318.628906 437.525177,332.929901 459.309967,333.887909 
	C478.799408,334.744904 495.174622,327.885651 508.718872,314.044403 
	C517.089050,305.490692 523.347717,295.512146 528.096619,284.559113 
	C528.624207,283.342255 529.153442,282.124573 529.741943,280.936981 
	C529.851013,280.716858 530.248108,280.639496 530.825867,280.326233 
	C530.247009,300.512604 526.146240,319.416168 513.738037,335.681305 
	C500.716064,352.750946 482.597534,360.097992 461.826324,361.839294 
	C450.970642,362.749359 440.188751,362.290527 429.748322,358.573761 
	C397.585327,347.123810 380.462463,310.615356 391.552124,276.153687 
	C400.415100,248.611603 419.562012,230.097260 445.189545,218.012894 
	C471.457520,205.626526 499.175507,203.442001 527.234131,209.578308 
	C562.844727,217.366226 586.468750,245.564346 588.999695,282.111328 
	C592.084351,326.653168 575.634216,362.563293 540.101746,389.472168 
	C492.126190,425.804169 440.421234,430.231720 386.928986,404.026703 
	C350.916199,386.384552 332.790710,354.813782 329.179871,315.646393 
	C324.837128,268.540070 341.166443,228.886780 378.009918,199.031113 
	C432.988800,154.479599 494.889008,145.826233 560.311279,170.312119 
	C608.562195,188.371216 634.992676,226.155151 642.893982,276.575043 
	C649.415283,318.189117 641.080933,357.796967 621.656860,394.593750 
	C582.957397,467.905396 524.865051,518.553467 443.872253,540.262085 
	C397.867493,552.592773 352.003571,551.503296 307.885986,531.826599 
	C264.674713,512.554199 237.070251,480.045959 228.629318,432.843536 
	C226.653976,421.797180 226.900116,410.353577 226.124191,399.092743 
	C226.628769,399.036133 227.133362,398.979523 227.637939,398.922913 
	C228.603043,403.422668 229.442505,407.953705 230.552658,412.417389 
	C241.949905,458.243530 271.365936,488.061218 314.058472,505.866577 
	C385.912994,535.834351 466.967010,518.693176 523.352905,461.466095 
	C523.878113,460.782043 524.027466,460.479126 524.427795,460.083679 
	C524.667114,459.749207 524.655579,459.507355 524.643982,459.265442 
	C524.280945,459.356567 523.917847,459.447693 523.335815,459.585571 
	C522.845764,459.777985 522.635315,459.985107 522.485352,460.253693 
z"/>
<path fill="#FEFEFE" opacity="1.000000" stroke="none" 
	d="
M1480.889526,435.999939 
	C1480.889526,384.346100 1480.844604,333.192200 1480.951172,282.038574 
	C1480.963257,276.236176 1481.270386,270.326263 1482.386475,264.652222 
	C1488.673096,232.691818 1520.651733,217.567780 1549.722290,232.623764 
	C1560.020264,237.957184 1567.908203,246.093918 1574.887573,255.083191 
	C1590.620117,275.346619 1606.122681,295.788422 1621.728271,316.150421 
	C1652.737183,356.610718 1683.749146,397.068848 1714.780273,437.512268 
	C1715.931885,439.013153 1717.295410,440.351379 1718.560181,441.765411 
	C1719.001465,441.618744 1719.442749,441.472076 1719.884033,441.325409 
	C1719.884033,370.209076 1719.884033,299.092743 1719.884033,228.195084 
	C1740.540649,222.824814 1769.699951,239.606842 1774.976685,259.273712 
	C1775.399170,260.848297 1775.394531,262.568359 1775.395020,264.220856 
	C1775.414307,338.202301 1775.443359,412.183746 1775.375000,486.165131 
	C1775.365479,496.449097 1769.734375,504.171906 1762.400391,510.513000 
	C1747.582275,523.325012 1723.214844,524.219543 1705.851807,512.980530 
	C1695.459473,506.253571 1687.707764,496.882904 1680.283325,487.212189 
	C1635.140381,428.409851 1590.018677,369.591339 1544.869873,310.793640 
	C1543.627808,309.176178 1542.159912,307.732147 1540.797363,306.207245 
	C1540.367065,306.360931 1539.936890,306.514648 1539.506592,306.668365 
	C1539.506592,377.795288 1539.506592,448.922241 1539.506592,519.869995 
	C1513.877197,525.668213 1485.479614,505.596741 1482.194458,478.895264 
	C1480.475464,464.921478 1481.244385,450.641602 1480.889526,435.999939 
z"/>
<path fill="#FEFEFE" opacity="1.000000" stroke="none" 
	d="
M1242.261353,346.863342 
	C1217.459717,270.964905 1132.218140,269.000031 1093.676025,300.360352 
	C1072.427856,317.649170 1062.415649,340.558838 1060.252075,367.213806 
	C1058.522949,388.516022 1061.394409,409.138855 1072.003052,428.136017 
	C1090.159546,460.649567 1129.674927,475.366394 1164.641235,462.572449 
	C1185.294800,455.015442 1197.380249,439.275696 1204.787231,419.402069 
	C1207.144531,413.077179 1208.742188,406.469208 1210.844482,399.467865 
	C1211.766968,400.682129 1212.598389,401.602966 1213.237061,402.642181 
	C1239.921509,446.053741 1223.654785,495.327087 1176.226562,513.883179 
	C1168.386597,516.950562 1160.011230,519.165283 1151.680054,520.377197 
	C1097.829834,528.210938 1040.117920,505.721985 1012.169312,448.985107 
	C1000.192932,424.672394 996.000244,398.777374 996.866821,371.866516 
	C999.470459,291.011963 1058.227173,230.224442 1139.103638,224.772110 
	C1169.595093,222.716507 1199.061157,226.986282 1226.597412,240.550232 
	C1272.484863,263.153717 1298.240356,300.954010 1306.844116,350.699280 
	C1309.159424,364.085022 1309.990723,377.857056 1310.127808,391.465607 
	C1310.541016,432.456818 1310.276855,473.454834 1310.276855,514.450195 
	C1310.276855,516.271057 1310.276855,518.091858 1310.276855,519.865295 
	C1286.530518,523.312927 1261.001221,510.960236 1254.108154,488.936737 
	C1251.613159,480.965118 1250.473022,472.308533 1250.277832,463.928131 
	C1249.742432,440.943115 1250.263306,417.935425 1249.925537,394.943176 
	C1249.687378,378.732727 1247.407349,362.743835 1242.261353,346.863342 
z"/>
<path fill="#FEFEFE" opacity="1.000000" stroke="none" 
	d="
M870.794312,305.797363 
	C879.266724,298.945129 887.462036,292.314545 895.657288,285.683990 
	C895.453247,285.053894 895.249207,284.423798 895.045166,283.793701 
	C892.921692,283.547455 890.798340,283.088318 888.674683,283.086334 
	C844.354797,283.044708 800.034607,283.131256 755.715332,282.968445 
	C749.433960,282.945404 743.027588,282.348053 736.901001,281.004425 
	C715.376343,276.283691 703.983032,263.001129 702.132935,241.064560 
	C701.857117,237.794083 702.094604,234.480347 702.094604,230.594894 
	C704.019958,230.594894 705.790466,230.594879 707.560913,230.594879 
	C775.540283,230.594940 843.520569,230.421326 911.498047,230.782410 
	C921.689941,230.836548 932.260193,232.101074 941.978394,235.042435 
	C968.858887,243.178268 979.900330,272.286469 964.926331,296.107727 
	C959.100342,305.375977 951.087769,313.709137 942.686890,320.836609 
	C918.175476,341.632782 893.003540,361.652710 868.019897,381.889740 
	C837.210632,406.845673 806.311523,431.690704 775.529541,456.680115 
	C773.785461,458.096008 772.750000,460.384735 771.384766,462.267212 
	C773.551453,462.794098 775.717102,463.776367 777.884766,463.780670 
	C822.870911,463.869934 867.858582,463.675385 912.842712,463.988983 
	C922.257629,464.054596 931.852783,465.056519 941.028320,467.122314 
	C960.419922,471.488159 975.127502,488.600525 972.758423,516.262207 
	C971.019958,516.262207 969.233398,516.262207 967.446899,516.262207 
	C896.301819,516.262207 825.155884,516.421997 754.012451,516.080322 
	C743.982544,516.032227 733.581177,514.809448 724.013184,511.931366 
	C696.071655,503.526550 685.137573,473.224121 701.396790,448.924805 
	C707.414490,439.931488 715.314270,431.806824 723.645691,424.825317 
	C748.923035,403.643585 774.826477,383.208740 800.494629,362.493652 
	C823.829651,343.661530 847.175842,324.843384 870.794312,305.797363 
z"/>
<path fill="#FCFCFC" opacity="1.000000" stroke="none" 
	d="
M1407.411499,238.580780 
	C1420.562988,249.742905 1424.584229,264.449493 1424.614136,280.442902 
	C1424.762085,359.550598 1424.687500,438.658752 1424.679443,517.766724 
	C1424.679321,518.563721 1424.516846,519.360718 1424.438843,520.078003 
	C1395.587158,525.581970 1367.870850,504.579834 1365.059448,475.263519 
	C1364.646729,470.960419 1364.439941,466.620636 1364.437866,462.297668 
	C1364.401245,385.521240 1364.411133,308.744843 1364.411011,231.968414 
	C1364.411011,230.181076 1364.411011,228.393753 1364.411011,226.280914 
	C1380.408203,225.709763 1394.766479,228.470856 1407.411499,238.580780 
z"/>
<path fill="#FBFBFB" opacity="1.000000" stroke="none" 
	d="
M1773.993652,748.999939 
	C1773.993652,759.153259 1773.993652,768.806519 1773.993652,778.853149 
	C1765.702637,778.853149 1757.826416,778.853149 1749.641968,778.853149 
	C1749.641968,750.057495 1749.641968,721.205933 1749.641968,692.092529 
	C1715.166870,692.092529 1680.769531,692.092529 1645.327393,692.092529 
	C1645.327393,721.039062 1645.327393,749.910645 1645.327393,779.010864 
	C1636.348755,779.010864 1628.413574,779.010864 1620.198730,779.010864 
	C1620.754150,714.558350 1621.307739,650.316284 1621.863647,585.806030 
	C1630.006714,585.806030 1637.776855,585.806030 1645.877075,585.806030 
	C1645.877075,614.244263 1645.877075,642.600952 1645.877075,671.217163 
	C1680.538574,671.217163 1714.938354,671.217163 1750.268555,671.217163 
	C1750.268555,642.796204 1750.268555,614.542297 1750.268555,585.913330 
	C1759.073120,585.913330 1766.959229,585.913330 1775.507080,585.913330 
	C1775.002930,640.081360 1774.498413,694.290588 1773.993652,748.999939 
z"/>
<path fill="#FCFCFC" opacity="1.000000" stroke="none" 
	d="
M1423.645752,757.422668 
	C1418.504517,744.187012 1413.450195,731.330994 1408.589966,718.401978 
	C1407.625977,715.837463 1406.426758,714.867371 1403.572021,714.882690 
	C1379.415894,715.011780 1355.258301,715.024719 1331.102539,714.871033 
	C1327.991211,714.851257 1326.848267,716.101379 1325.782349,718.697021 
	C1317.627075,738.557007 1309.335693,758.361206 1301.081299,778.180481 
	C1300.445557,779.707031 1299.770630,781.217285 1298.912964,783.199768 
	C1291.557251,780.889221 1284.333618,778.620178 1276.731445,776.232239 
	C1277.320190,774.555115 1277.719971,773.170166 1278.280762,771.853760 
	C1304.181152,711.067566 1330.112427,650.294556 1355.954712,589.483704 
	C1357.139404,586.696106 1358.442017,585.253052 1361.731079,585.457581 
	C1366.709717,585.767151 1371.727539,585.678589 1376.717773,585.482910 
	C1379.567749,585.371094 1381.122437,586.143188 1382.281250,589.010681 
	C1407.036743,650.268005 1431.909912,711.477844 1456.753418,772.699646 
	C1457.055176,773.443115 1457.266235,774.223389 1457.668335,775.434265 
	C1449.731934,778.029663 1442.046387,780.543030 1433.664185,783.284119 
	C1430.338867,774.684814 1427.069824,766.230713 1423.645752,757.422668 
M1354.501221,694.846252 
	C1369.132080,694.846252 1383.762939,694.846252 1399.082031,694.846252 
	C1388.908569,665.653259 1378.893677,636.915527 1368.440552,606.920288 
	C1357.301514,636.926270 1346.634644,665.660339 1335.800171,694.846252 
	C1342.203369,694.846252 1347.852905,694.846252 1354.501221,694.846252 
z"/>
<path fill="#FCFCFC" opacity="1.000000" stroke="none" 
	d="
M1167.730225,610.648376 
	C1130.270142,631.710754 1116.326660,679.014954 1134.673584,719.173828 
	C1149.819458,752.325562 1196.310791,781.877747 1253.799072,748.140381 
	C1256.842041,753.633118 1259.881226,759.118896 1263.205688,765.119568 
	C1245.291260,774.418640 1227.365967,782.621765 1206.985962,783.095581 
	C1177.494629,783.781250 1150.768066,776.101196 1129.343506,754.947449 
	C1105.820801,731.722229 1097.955444,702.606628 1101.642334,670.623718 
	C1107.862549,616.662598 1151.142822,580.322632 1205.534668,581.595154 
	C1224.596802,582.041199 1242.392090,586.563904 1259.370972,594.906982 
	C1260.564331,595.493408 1261.740967,596.116821 1262.902222,596.764587 
	C1263.173706,596.915955 1263.350830,597.236755 1263.792236,597.723145 
	C1260.611938,603.760071 1257.384399,609.886719 1254.141235,616.042847 
	C1226.103394,599.737305 1197.619385,596.411743 1167.730225,610.648376 
z"/>
<path fill="#FBFBFB" opacity="1.000000" stroke="none" 
	d="
M1503.434692,619.735962 
	C1497.324585,636.265625 1500.254272,647.978699 1514.330933,657.680054 
	C1523.033691,663.677734 1532.911011,667.975342 1542.279419,673.001648 
	C1549.162964,676.694702 1556.384277,679.856262 1562.917603,684.084961 
	C1580.927979,695.742249 1590.070190,712.077393 1587.392456,733.972900 
	C1584.633179,756.533447 1572.147339,771.443970 1550.996582,779.169739 
	C1527.417236,787.782349 1492.476196,782.620056 1471.743042,767.416077 
	C1475.158203,761.874207 1478.598145,756.292175 1481.904907,750.926147 
	C1488.702271,754.236328 1494.942383,757.726013 1501.519531,760.380737 
	C1513.771118,765.325684 1526.433960,766.469299 1539.117188,762.093628 
	C1550.876709,758.036621 1558.470459,749.875488 1560.840332,737.519897 
	C1563.331665,724.531799 1561.280029,712.419128 1549.713013,704.565308 
	C1540.837769,698.539124 1530.898315,694.066956 1521.370605,689.019470 
	C1514.618530,685.442383 1507.427612,682.585571 1501.017334,678.491455 
	C1480.603394,665.453613 1473.104736,646.244873 1477.390381,622.943726 
	C1481.521240,600.484375 1497.078979,588.352539 1518.347900,583.564880 
	C1542.469116,578.135132 1564.896606,583.909424 1585.884888,596.252441 
	C1586.127686,596.395203 1586.214966,596.802429 1586.554810,597.405579 
	C1583.714478,602.791443 1580.784302,608.347717 1577.699585,614.197021 
	C1572.122681,611.233582 1566.814697,608.250183 1561.365356,605.552551 
	C1551.032837,600.437622 1540.076416,599.096741 1528.775635,600.990234 
	C1517.373169,602.900757 1508.801758,608.884583 1503.434692,619.735962 
z"/>
<path fill="#FDFDFD" opacity="1.000000" stroke="none" 
	d="
M1429.408569,161.823517 
	C1432.552246,184.064362 1417.762695,202.905273 1396.721680,204.009781 
	C1375.527954,205.122330 1358.357178,188.292007 1359.037109,167.072281 
	C1359.598877,149.539795 1373.458252,134.921463 1391.179688,133.169479 
	C1409.117065,131.396149 1425.059204,143.199188 1429.408569,161.823517 
z"/>
<path fill="#231F20" opacity="1.000000" stroke="none" 
	d="
M524.176880,460.176239 
	C524.027466,460.479126 523.878113,460.782043 523.471069,461.152344 
	C523.085754,461.063629 522.957947,460.907501 522.657776,460.502502 
	C522.635315,459.985107 522.845764,459.777985 523.489685,459.746490 
	C523.862610,459.860687 524.176880,460.176239 524.176880,460.176239 
z"/>
<path fill="#231F20" opacity="1.000000" stroke="none" 
	d="
M523.708740,459.699768 
	C523.917847,459.447693 524.280945,459.356567 524.643982,459.265442 
	C524.655579,459.507355 524.667114,459.749207 524.427795,460.083679 
	C524.176880,460.176239 523.862610,459.860687 523.708740,459.699768 
z"/>
<path fill="#272324" opacity="1.000000" stroke="none" 
	d="
M1354.001709,694.846252 
	C1347.852905,694.846252 1342.203369,694.846252 1335.800171,694.846252 
	C1346.634644,665.660339 1357.301514,636.926270 1368.440552,606.920288 
	C1378.893677,636.915527 1388.908569,665.653259 1399.082031,694.846252 
	C1383.762939,694.846252 1369.132080,694.846252 1354.001709,694.846252 
z"/>
</svg>